<svg xmlns="http://www.w3.org/2000/svg" xmlns:xlink="http://www.w3.org/1999/xlink" viewBox="0 0 404.96 311.88"><defs><style>.cls-1{fill:url(#Gradiente_sem_nome_19);}.cls-2{fill:url(#Gradiente_sem_nome_24);}</style><linearGradient id="Gradiente_sem_nome_19" x1="364.35" y1="-1011.7" x2="227.04" y2="-1234.82" gradientTransform="matrix(1, 0, 0, -1, 0, -967.37)" gradientUnits="userSpaceOnUse"><stop offset="0" stop-color="#ff6701"/><stop offset="0.3" stop-color="#ff770c"/><stop offset="0.88" stop-color="#fe9f29"/><stop offset="1" stop-color="#fea82f"/></linearGradient><linearGradient id="Gradiente_sem_nome_24" x1="97.57" y1="-1042.21" x2="183.38" y2="-1293.41" gradientTransform="matrix(1, 0, 0, -1, 0, -967.37)" gradientUnits="userSpaceOnUse"><stop offset="0" stop-color="#ff6701"/><stop offset="0.2" stop-color="#ff6f07"/><stop offset="0.52" stop-color="#ff8516"/><stop offset="0.9" stop-color="#fea82f"/></linearGradient></defs><g id="Camada_2" data-name="Camada 2"><g id="Camada_1-2" data-name="Camada 1"><path class="cls-1" d="M405,306.58,290.52,121.79,221.7,10.66a22.52,22.52,0,0,0-38.29,0L114.57,122C131.62,175.43,162,222,202.76,255.65A241.38,241.38,0,0,0,405,306.58Z"/><path class="cls-2" d="M290.52,121.79,221.7,10.66a22.52,22.52,0,0,0-38.29,0L114.57,122,0,307.13a241.43,241.43,0,0,0,202.76-51.48C243.35,221.92,273.61,175.25,290.52,121.79Z"/></g></g></svg>