<svg xmlns="http://www.w3.org/2000/svg" xmlns:xlink="http://www.w3.org/1999/xlink" viewBox="0 0 460.54 411.11"><defs><style>.cls-1{font-size:56px;fill:#f7f6f9;font-family:Poppins-Light, Poppins;font-weight:300;}.cls-2{font-family:Poppins-Bold, Poppins;font-weight:700;}.cls-3{fill:url(#Gradiente_sem_nome_10);}.cls-4{fill:url(#Gradiente_sem_nome_5);}</style><linearGradient id="Gradiente_sem_nome_10" x1="392.14" y1="-1011.7" x2="254.83" y2="-1234.82" gradientTransform="matrix(1, 0, 0, -1, 0, -967.37)" gradientUnits="userSpaceOnUse"><stop offset="0" stop-color="#b6b6b8"/><stop offset="0.27" stop-color="#c5c6c8"/><stop offset="0.79" stop-color="#edeef0"/><stop offset="0.9" stop-color="#f6f7f9"/></linearGradient><linearGradient id="Gradiente_sem_nome_5" x1="125.36" y1="-1042.21" x2="211.17" y2="-1293.41" gradientTransform="matrix(1, 0, 0, -1, 0, -967.37)" gradientUnits="userSpaceOnUse"><stop offset="0" stop-color="#b6b6b8"/><stop offset="0.2" stop-color="#bebec0"/><stop offset="0.52" stop-color="#d4d3d6"/><stop offset="0.9" stop-color="#f7f6f9"/></linearGradient></defs><g id="Camada_2" data-name="Camada 2"><g id="Camada_1-2" data-name="Camada 1"><text class="cls-1" transform="translate(0 377.18)">PRISMA<tspan class="cls-2" x="192.97" y="0" xml:space="preserve"> SYSTEMS</tspan></text><path class="cls-3" d="M432.75,306.58,318.31,121.79,249.49,10.66a22.52,22.52,0,0,0-38.29,0L142.36,122c17,53.47,47.47,100.07,88.19,133.69a241.38,241.38,0,0,0,202.2,50.93Z"/><path class="cls-4" d="M318.31,121.79,249.49,10.66a22.52,22.52,0,0,0-38.29,0L142.36,122,27.79,307.13a241.43,241.43,0,0,0,202.76-51.48C271.14,221.92,301.4,175.25,318.31,121.79Z"/></g></g></svg>